HIERARCHY
ROOT Hips
{
	OFFSET 0.000000 0.000000 0.000000 
	CHANNELS 6 Xposition Yposition Zposition Zrotation Yrotation Xrotation
	JOINT LeftUpLeg
	{
		OFFSET 1.363060 -1.794630 0.839290 
		CHANNELS 3 Zrotation Yrotation Xrotation
		JOINT LeftLeg
		{
			OFFSET 2.448110 -6.726130 0.000000 
			CHANNELS 3 Zrotation Yrotation Xrotation
			JOINT LeftFoot
			{
				OFFSET 2.562200 -7.039590 0.000000 
				CHANNELS 3 Zrotation Yrotation Xrotation
				JOINT LeftToeBase
				{
					OFFSET 0.157640 -0.433110 2.322550 
					CHANNELS 3 Zrotation Yrotation Xrotation
					End Site
					{
						OFFSET 0.000000 0.000000 0.000000 
					}
				}
			}
		}
	}
	JOINT RightUpLeg
	{
		OFFSET -1.305520 -1.794630 0.839290 
		CHANNELS 3 Zrotation Yrotation Xrotation
		JOINT RightLeg
		{
			OFFSET -2.542530 -6.985550 0.000000 
			CHANNELS 3 Zrotation Yrotation Xrotation
			JOINT RightFoot
			{
				OFFSET -2.568260 -7.056230 0.000000 
				CHANNELS 3 Zrotation Yrotation Xrotation
				JOINT RightToeBase
				{
					OFFSET -0.164730 -0.452590 2.363150 
					CHANNELS 3 Zrotation Yrotation Xrotation
					End Site
					{
						OFFSET 0.000000 0.000000 0.000000 
					}
				}
			}
		}
	}
	JOINT Spine
	{
		OFFSET 0.028270 2.035590 -0.193380 
		CHANNELS 3 Zrotation Yrotation Xrotation
		JOINT Spine1
		{
			OFFSET 0.056720 2.048850 -0.042750 
			CHANNELS 3 Zrotation Yrotation Xrotation
			JOINT Neck1
			{
				OFFSET -0.054170 1.746240 0.172020 
				CHANNELS 3 Zrotation Yrotation Xrotation
				JOINT Head
				{
					OFFSET 0.104070 1.761360 -0.123970 
					CHANNELS 3 Zrotation Yrotation Xrotation
					End Site
					{
						OFFSET 0.000000 0.000000 0.000000 
					}
				}
			}
			JOINT LeftArm
			{
				OFFSET 3.362410 1.200890 -0.311210 
				CHANNELS 3 Zrotation Yrotation Xrotation
				JOINT LeftForeArm
				{
					OFFSET 4.983000 -0.000000 -0.000000 
					CHANNELS 3 Zrotation Yrotation Xrotation
					JOINT LeftHand
					{
						OFFSET 3.483560 -0.000000 -0.000000 
						CHANNELS 3 Zrotation Yrotation Xrotation
						JOINT LeftHandIndex1
						{
							OFFSET 0.715260 -0.000000 -0.000000 
							CHANNELS 3 Zrotation Yrotation Xrotation
							End Site
							{
								OFFSET 0.000000 0.000000 0.000000 
							}
						}
					}
				}
			}
			JOINT RightArm
			{
				OFFSET -3.136600 1.374050 -0.404650 
				CHANNELS 3 Zrotation Yrotation Xrotation
				JOINT RightForeArm
				{
					OFFSET -5.241900 -0.000000 -0.000000 
					CHANNELS 3 Zrotation Yrotation Xrotation
					JOINT RightHand
					{
						OFFSET -3.444170 -0.000000 -0.000000 
						CHANNELS 3 Zrotation Yrotation Xrotation
						JOINT RightHandIndex1
						{
							OFFSET -0.622530 -0.000000 -0.000000 
							CHANNELS 3 Zrotation Yrotation Xrotation
							End Site
							{
								OFFSET 0.000000 0.000000 0.000000 
							}
						}
					}
				}
			}
		}
	}
}
MOTION
Frames: 16
Frame Time: 0.041667
2.169617 18.121255 6.804899 -2.983357 -25.071855 6.212146 -22.803415 1.604776 -5.240997 1.488896 7.178232 24.106396 0.439128 6.448587 -12.381866 1.302900 -7.231200 -20.402200 33.699847 -4.444350 -11.320514 -2.605096 -7.574436 25.614626 -0.081108 -5.992567 -8.325998 -0.016600 -0.832300 2.287400 2.020573 -4.759560 -5.609389 0.047591 -1.961243 -9.454945 -2.897446 7.079511 7.794753 -9.150300 3.690600 3.407500 -77.013241 8.491271 61.365643 29.404045 -35.010239 -11.470972 0.191234 -1.470615 -45.762371 -7.125000 0.000000 0.000000 76.506075 -2.121362 25.464667 -12.985631 14.418052 -1.994830 -0.786221 -0.527061 20.390568 7.125000 0.000000 0.000000 
2.225041 18.135794 6.755427 -3.414475 -24.873108 6.961407 -22.819486 0.989831 -6.252852 1.468174 7.288645 24.283260 0.454377 7.420253 -13.025915 1.029900 -6.455400 -18.111600 34.342698 -4.317224 -12.011583 -2.500083 -7.458212 25.140180 -0.045264 -6.850182 -8.157823 -0.001200 -0.221100 0.607400 2.032923 -4.786671 -5.665470 0.008505 -1.985413 -9.490254 -2.877069 6.957985 7.943713 -9.134600 3.637600 3.535900 -76.815613 8.193770 61.263510 29.908037 -35.444873 -11.803860 0.200000 -1.455856 -45.762975 -7.125000 0.000000 0.000000 76.445224 -2.164445 25.198147 -12.907357 14.330504 -1.980238 -0.792988 -0.537722 20.676290 7.125000 0.000000 0.000000 
2.280367 18.129646 6.719812 -3.994786 -24.896328 7.080449 -22.639641 1.349925 -6.653566 1.486766 7.364301 24.477455 0.460902 7.757362 -13.304940 1.062700 -6.554000 -18.400600 34.833616 -4.313199 -11.735648 -2.418447 -7.342035 24.777998 -0.027104 -7.337336 -8.342626 -0.003400 -0.376800 1.035300 2.038914 -4.799836 -5.638210 -0.111045 -2.011751 -9.588346 -2.897536 6.974978 7.855772 -9.168400 3.637700 3.507700 -76.569864 8.076579 61.008621 30.390570 -35.856926 -12.121272 0.205452 -1.438441 -45.847784 -7.125000 0.000000 0.000000 76.399672 -2.279696 25.451615 -12.949901 14.396039 -1.994373 -0.802956 -0.529102 20.770135 7.125000 0.000000 0.000000 
2.336278 18.129549 6.689466 -4.394988 -24.793625 7.371415 -22.687790 1.424328 -7.223794 1.498643 7.460685 24.701055 0.440742 8.469773 -13.376136 1.315000 -7.263200 -20.497600 35.145216 -4.430460 -11.830602 -2.350738 -7.257239 24.475075 -0.051287 -7.430616 -9.171152 -0.045900 -1.382300 3.801300 2.046208 -4.902775 -5.608508 -0.201407 -2.079748 -9.475239 -3.015259 7.007066 7.754884 -9.267700 3.631900 3.518000 -76.257467 7.862005 60.647427 30.904397 -36.306150 -12.466105 0.222837 -1.421959 -45.914563 -7.125000 0.000000 0.000000 76.353480 -2.266369 25.674554 -13.007398 14.483059 -2.009668 -0.808240 -0.515772 20.733853 7.125000 0.000000 0.000000 
2.391116 18.126719 6.647117 -4.677471 -24.649525 7.837539 -22.752924 0.798779 -7.833233 1.474310 7.546808 24.837456 0.451568 9.348361 -14.162492 1.080700 -6.607500 -18.557800 35.432913 -4.497826 -12.297512 -2.303794 -7.232638 24.318020 -0.109870 -7.360027 -10.468885 -0.257100 -3.262400 9.010000 2.090710 -4.959330 -5.638860 0.004185 -2.089142 -9.501538 -3.001087 6.907399 7.834812 -9.207200 3.580500 3.557000 -76.302854 7.671175 60.281462 31.227253 -36.578158 -12.688288 0.238872 -1.420009 -45.681717 -7.125000 0.000000 0.000000 76.135531 -2.354717 25.221294 -13.008091 14.497533 -2.016438 -0.834073 -0.506530 21.060366 7.125000 0.000000 0.000000 
2.442051 18.107984 6.598817 -4.874742 -24.547933 8.056009 -22.809686 0.414193 -8.149614 1.436463 7.567585 24.818158 0.475513 9.896010 -14.990718 0.975400 -6.287100 -17.619700 35.612978 -4.369433 -12.503886 -2.288489 -7.269120 24.377177 -0.164281 -7.473677 -11.693994 -0.438000 -4.246900 11.772300 2.136520 -5.028239 -5.668896 0.338668 -2.083232 -9.687904 -2.926546 6.860779 7.804983 -9.119500 3.550200 3.523500 -76.466682 7.571683 59.846715 31.308244 -36.636057 -12.736511 0.235239 -1.421473 -45.322855 -7.125000 0.000000 0.000000 75.894333 -2.557850 25.023366 -13.039273 14.530510 -2.030617 -0.852968 -0.503827 21.145193 7.125000 0.000000 0.000000 
2.493864 18.085346 6.560567 -4.906015 -24.639460 7.989528 -22.997579 0.413896 -8.144657 1.404186 7.545079 24.726262 0.529553 9.924567 -15.845452 0.770400 -5.604700 -15.641700 35.481296 -4.117911 -12.423260 -2.314473 -7.363914 24.650291 -0.226491 -7.540786 -12.867375 -0.483200 -4.457600 12.367800 2.106749 -4.944673 -5.632993 0.450035 -2.018146 -9.735279 -2.858885 6.825622 7.525821 -9.073300 3.496900 3.365400 -76.229478 7.386929 59.935190 31.468848 -36.772537 -12.841986 0.228664 -1.409841 -45.379196 -7.125000 0.000000 0.000000 75.839918 -2.604155 24.844512 -13.024342 14.508991 -2.029596 -0.850794 -0.513948 20.870600 7.125000 0.000000 0.000000 
2.550556 18.065636 6.515682 -4.895593 -24.487813 8.097366 -23.178980 -0.061210 -8.287652 1.368405 7.531979 24.629819 0.584867 9.938294 -16.642128 0.510500 -4.579900 -12.714100 35.331638 -3.743306 -12.505354 -2.341747 -7.502562 25.021779 -0.307112 -7.957114 -14.529791 -0.749300 -5.529200 15.424400 2.082386 -4.987217 -5.610225 0.516983 -2.017076 -9.754164 -2.789739 6.847390 7.068725 -9.011700 3.453300 3.087100 -75.829506 7.151106 60.151122 31.719023 -36.991686 -13.017018 0.229135 -1.397122 -45.744298 -7.125000 0.000000 0.000000 75.822526 -2.497995 24.457681 -12.941033 14.412210 -2.017897 -0.860364 -0.530661 20.711893 7.125000 0.000000 0.000000 
2.603345 18.023483 6.478505 -5.062439 -24.591126 7.996555 -23.168152 -0.167969 -8.124182 1.331273 7.499738 24.519834 0.607013 10.277920 -17.232415 0.599000 -4.954600 -13.779100 35.388499 -3.909244 -12.383030 -2.366029 -7.656285 25.474772 -0.315391 -9.119543 -15.853508 -0.684100 -5.288200 14.732300 2.069807 -5.031762 -5.535396 0.532766 -2.033634 -9.644370 -2.786831 6.984634 6.755351 -9.014900 3.480800 2.936400 -75.567223 6.920289 59.801606 31.774311 -37.050919 -13.049385 0.227444 -1.392605 -45.776557 -7.125000 0.000000 0.000000 75.885985 -2.340052 24.009096 -12.875211 14.338106 -2.005393 -0.869507 -0.535119 20.861223 7.125000 0.000000 0.000000 
2.655159 17.983086 6.433132 -5.200865 -24.558829 8.020810 -23.133806 -0.496177 -8.104985 1.306514 7.492017 24.462682 0.654484 10.338553 -17.902810 0.628800 -5.073900 -14.119400 35.494619 -4.065226 -12.396398 -2.388091 -7.817943 25.937986 -0.294752 -10.525899 -17.179780 -0.572300 -4.844900 13.466800 2.092195 -5.095640 -5.514407 0.716417 -2.044152 -9.669974 -2.810395 6.989934 6.668330 -8.999300 3.464400 2.907200 -75.597593 6.823372 59.388353 31.652805 -36.949950 -12.954499 0.223541 -1.395192 -45.574094 -7.125000 0.000000 0.000000 75.811306 -2.358347 23.773821 -12.876172 14.315705 -1.985652 -0.840332 -0.530264 20.836748 7.125000 0.000000 0.000000 
2.707167 17.952642 6.393808 -5.132847 -24.617908 7.981099 -23.284057 -0.724930 -8.175044 1.316713 7.538850 24.577854 0.733900 10.079466 -18.657804 0.452500 -4.315300 -11.965500 35.252792 -4.120340 -12.215655 -2.437506 -7.951698 26.349316 -0.446426 -10.509783 -19.037554 -0.949600 -6.205800 17.382800 2.083421 -5.089029 -5.501836 0.905926 -2.010961 -9.728971 -2.789226 6.956644 6.529805 -8.954900 3.427900 2.818300 -75.550292 6.769268 59.265690 31.385167 -36.729466 -12.762599 0.218668 -1.400174 -45.544419 -7.125000 0.000000 0.000000 75.861267 -2.215537 22.525602 -12.617860 13.984991 -1.913126 -0.843624 -0.542645 21.587808 7.125000 0.000000 0.000000 
2.757907 17.917319 6.364047 -5.140671 -24.822043 7.885827 -23.373188 -0.682194 -8.272794 1.343112 7.612417 24.788055 0.783081 10.046607 -19.197787 0.423600 -4.177400 -11.576300 35.018683 -4.302261 -11.899282 -2.500676 -8.073491 26.756060 -0.611093 -10.129072 -20.445190 -1.235600 -7.049000 19.860600 2.030535 -5.026954 -5.462582 0.855612 -1.976112 -9.732719 -2.759165 7.009141 6.377174 -8.972200 3.440200 2.744100 -75.261235 6.720044 59.067330 31.045594 -36.449420 -12.520338 0.207748 -1.403632 -45.356257 -7.125000 0.000000 0.000000 76.283191 -1.811428 19.798630 -12.106861 13.380168 -1.813090 -0.921539 -0.562810 23.758278 7.125000 0.000000 0.000000 
2.807281 17.872044 6.332530 -5.539024 -24.900564 7.916079 -23.051494 -0.595352 -8.433919 1.371900 7.693667 25.013473 0.789325 10.296343 -19.471909 0.820900 -5.781200 -16.150800 35.226823 -4.609354 -11.567577 -2.553914 -8.204746 27.190017 -0.707574 -10.185156 -21.504667 -1.117700 -6.716100 18.877100 2.021842 -4.914962 -5.405514 0.743607 -1.935141 -9.675129 -2.654404 6.950013 6.241427 -8.917900 3.397700 2.640300 -75.158047 6.604969 58.770059 30.570480 -36.042257 -12.183805 0.189665 -1.410727 -44.902705 -7.125000 0.000000 0.000000 76.448708 -1.702548 18.546283 -11.966405 13.232911 -1.797321 -0.956047 -0.569562 24.541184 7.125000 0.000000 0.000000 
2.857045 17.823841 6.296037 -5.920089 -24.838190 7.982311 -22.718794 -0.578207 -8.681586 1.409620 7.790158 25.274641 0.823345 10.321829 -19.876215 1.352300 -7.361500 -20.790700 35.455163 -4.945706 -11.299287 -2.609583 -8.330450 27.606623 -0.792661 -10.162606 -22.321326 -0.975100 -6.286400 17.617700 2.021734 -4.857732 -5.356107 0.623116 -1.922224 -9.619225 -2.548064 6.862338 6.080712 -8.843400 3.339800 2.492300 -75.112378 6.433324 58.442777 29.888900 -35.438220 -11.701392 0.158601 -1.416536 -44.641840 -7.125000 0.000000 0.000000 76.490789 -1.755115 18.348611 -12.040195 13.331926 -1.811516 -0.944420 -0.567258 24.391671 7.125000 0.000000 0.000000 
2.905638 17.776711 6.261592 -6.272201 -24.869959 8.186055 -22.404303 -0.652983 -9.047492 1.447141 7.880883 25.501153 0.948084 9.754098 -20.769252 1.214100 -6.989700 -19.684900 35.661733 -5.037546 -11.104279 -2.669256 -8.451331 28.003732 -0.863778 -10.020010 -22.862085 -0.900900 -6.049000 16.926600 2.017581 -4.837353 -5.348544 0.496214 -1.926748 -9.643794 -2.603814 6.830865 6.021141 -8.912900 3.324400 2.437000 -74.816346 6.443904 58.327285 29.299145 -34.911400 -11.290923 0.130744 -1.415976 -44.740309 -7.125000 0.000000 0.000000 76.654097 -1.750456 17.756602 -11.931657 13.202091 -1.783760 -0.944252 -0.572355 24.850005 7.125000 0.000000 0.000000 
2.949157 17.735241 6.227440 -6.492092 -24.905136 8.365409 -22.242986 -0.618925 -9.347135 1.457472 7.910021 25.551198 1.063540 9.163784 -21.503117 0.944900 -6.191000 -17.339700 35.755033 -4.839705 -10.825146 -2.738167 -8.586062 28.446883 -0.942255 -9.941151 -23.503659 -0.795000 -5.691300 15.891400 2.018548 -4.802667 -5.329399 0.490355 -1.914059 -9.544508 -2.718041 6.777525 6.017859 -9.019100 3.294000 2.452700 -74.431030 6.425923 58.532272 28.748702 -34.435562 -10.931557 0.126811 -1.425491 -44.909471 -7.125000 0.000000 0.000000 76.712337 -1.679300 17.447263 -11.834015 13.073610 -1.755737 -0.921577 -0.592466 24.889600 7.125000 0.000000 0.000000 
